<svg xmlns="http://www.w3.org/2000/svg" width="1600" height="520" viewBox="0 0 1600 520" role="img" aria-labelledby="title desc">
<title id="title">Daylight — Your music. A little brighter.</title>
<desc id="desc">A warm peach and lilac cover with Daylight's butterfly mark.</desc>
<metadata>Butterfly mark adapted from © art by 11 (_artbyeleven on IG).</metadata>
<defs>
  <linearGradient id="paper" x1="0" y1="0" x2="1" y2="1"><stop stop-color="#fff8ef"/><stop offset="0.5" stop-color="#f9e8db"/><stop offset="1" stop-color="#e9def3"/></linearGradient>
  <radialGradient id="sun"><stop stop-color="#ffdaa9" stop-opacity="0.9"/><stop offset="1" stop-color="#ffdaa9" stop-opacity="0"/></radialGradient>
</defs>
<rect width="1600" height="520" rx="32" fill="url(#paper)"/>
<circle cx="1210" cy="260" r="305" fill="url(#sun)"/>
<circle cx="1280" cy="290" r="174" fill="#fffaf2" fill-opacity="0.44" stroke="#caa29b" stroke-opacity="0.35"/>
<g font-family="Inter, -apple-system, BlinkMacSystemFont, Segoe UI, sans-serif">
  <text x="96" y="93" font-size="18" font-weight="600" letter-spacing="4" fill="#9e5a51">MADE FOR THE MUSIC</text>
  <text x="88" y="255" font-size="132" font-weight="650" letter-spacing="-6" fill="#302629">Daylight</text>
  <text x="96" y="331" font-size="38" font-weight="450" letter-spacing="-0.8" fill="#a6534b">Your music. A little brighter.</text>
  <text x="98" y="424" font-size="21" fill="#80696e">ANDROID  ·  OPEN SOURCE  ·  BY SH1VVY</text>
</g>
<g transform="translate(1130 188) scale(3)"><g fill="#a6534b"><path d="M48.7,38.4 C39.1,24.7 22.5,5.4 8.5,1.8 C3.7,0.3 2,1.7 2.5,7.3 C3.6,16.8 7,24.4 10.8,32.8 C12.2,36.7 15.4,37.9 20.2,38.3 L46.8,41.4 Z M38,32 C31,24 23,22 16,24 C14.7,24.4 14.7,25.9 15.7,26.7 C22,31.1 28.4,32.2 38,33.8 Z M29,20 C26.5,14.9 20.1,10.8 17.1,11.3 C15.7,11.5 15.9,13.1 16.6,14.1 C20.2,17.7 23.7,19.4 29,21.2 Z M24.5,22.3 C20.8,19.2 16.3,17.9 13.4,19 C12,19.5 12.1,21 13.1,21.5 C16.5,23.3 19.7,23.5 24.5,23.7 Z" fill-rule="evenodd"/>
<path d="M47.7,41.9 C38,39.6 26.7,38.6 20.1,39.5 C13.1,40.2 10.9,45.8 14.1,52.6 C17.4,60.2 24.7,67.3 30,69.5 C35.6,71.9 40,68.3 42.7,62.6 C45.2,57.3 48.9,49.3 49.4,44.2 Z M44,43 C37,41.7 25.1,41.8 20.3,43.2 C18.4,43.8 18.8,45.3 20.4,45.4 C29,46.4 34.4,46.6 44,43.9 Z M44.9,44.7 C37.8,46.9 29.1,48.5 22.9,52.5 C21.5,53.5 22.2,55.3 23.7,55.2 C31.3,53.2 37.4,50.5 45.3,45.6 Z M45.5,46.8 C41.2,51.4 35.5,58.8 31.4,63.4 C30.2,64.8 31.1,66.7 32.7,66.4 C37.6,63.1 43.6,54.1 46.4,47.3 Z" fill-rule="evenodd"/><g transform="translate(100 0) scale(-1 1)"><path d="M48.7,38.4 C39.1,24.7 22.5,5.4 8.5,1.8 C3.7,0.3 2,1.7 2.5,7.3 C3.6,16.8 7,24.4 10.8,32.8 C12.2,36.7 15.4,37.9 20.2,38.3 L46.8,41.4 Z M38,32 C31,24 23,22 16,24 C14.7,24.4 14.7,25.9 15.7,26.7 C22,31.1 28.4,32.2 38,33.8 Z M29,20 C26.5,14.9 20.1,10.8 17.1,11.3 C15.7,11.5 15.9,13.1 16.6,14.1 C20.2,17.7 23.7,19.4 29,21.2 Z M24.5,22.3 C20.8,19.2 16.3,17.9 13.4,19 C12,19.5 12.1,21 13.1,21.5 C16.5,23.3 19.7,23.5 24.5,23.7 Z" fill-rule="evenodd"/>
<path d="M47.7,41.9 C38,39.6 26.7,38.6 20.1,39.5 C13.1,40.2 10.9,45.8 14.1,52.6 C17.4,60.2 24.7,67.3 30,69.5 C35.6,71.9 40,68.3 42.7,62.6 C45.2,57.3 48.9,49.3 49.4,44.2 Z M44,43 C37,41.7 25.1,41.8 20.3,43.2 C18.4,43.8 18.8,45.3 20.4,45.4 C29,46.4 34.4,46.6 44,43.9 Z M44.9,44.7 C37.8,46.9 29.1,48.5 22.9,52.5 C21.5,53.5 22.2,55.3 23.7,55.2 C31.3,53.2 37.4,50.5 45.3,45.6 Z M45.5,46.8 C41.2,51.4 35.5,58.8 31.4,63.4 C30.2,64.8 31.1,66.7 32.7,66.4 C37.6,63.1 43.6,54.1 46.4,47.3 Z" fill-rule="evenodd"/></g><path d="M50,27.8 C48.3,27.8 47.8,29.4 48.2,31.1 C47.3,33.1 46.9,35.8 47.4,40.4 C47.8,45.2 48.2,51.4 48.6,59.8 C48.7,63.4 49.2,65.5 50,65.5 C50.8,65.5 51.3,63.4 51.4,59.8 C51.8,51.4 52.2,45.2 52.6,40.4 C53.1,35.8 52.7,33.1 51.8,31.1 C52.2,29.4 51.7,27.8 50,27.8 Z"/></g><path d="M49.1,29 L47.1,25.5 M50.9,29 L52.9,25.5" fill="none" stroke="#a6534b" stroke-width="1.4" stroke-linecap="round"/></g>
<path d="M1060 120v22m-11-11h22M1465 390v16m-8-8h16" stroke="#a6534b" stroke-width="2.5" stroke-linecap="round" opacity="0.65"/>
</svg>
